<?xml version="1.0" encoding="UTF-8" ?>
<!DOCTYPE svg PUBLIC "-//W3C//DTD SVG 1.1//EN" "http://www.w3.org/Graphics/SVG/1.1/DTD/svg11.dtd">
<svg width="24pt" height="24pt" viewBox="0 0 24 24" version="1.1" xmlns="http://www.w3.org/2000/svg">
<g id="#f4f4f4f4">
<path fill="#f4f4f4" opacity="0.96" d=" M 0.00 0.00 L 24.00 0.00 L 24.00 24.00 L 23.04 24.00 L 23.02 23.00 L 23.01 22.01 C 22.83 15.43 23.45 8.80 22.82 2.24 C 22.56 1.96 22.02 1.40 21.76 1.12 C 15.26 0.85 8.76 0.86 2.27 1.13 C 1.98 1.41 1.41 1.98 1.13 2.27 C 0.88 8.85 0.98 15.43 1.00 22.01 L 0.99 23.00 L 0.96 24.00 L 0.00 24.00 L 0.00 0.00 Z" />
</g>
<g id="#2c2c2c2c">
<path fill="#2c2c2c" opacity="0.17" d=" M 2.27 1.13 C 8.76 0.86 15.26 0.85 21.76 1.12 C 22.02 1.40 22.56 1.96 22.82 2.24 C 23.45 8.80 22.83 15.43 23.01 22.01 L 22.10 21.97 C 21.91 20.56 21.70 19.16 21.37 17.78 L 21.31 17.07 C 21.27 12.52 23.42 6.95 21.21 2.79 C 15.64 1.96 8.42 0.66 2.76 2.78 C 1.17 6.85 2.53 12.43 2.46 17.18 L 2.49 17.91 C 2.25 19.25 2.09 20.61 1.93 21.97 L 1.00 22.01 C 0.98 15.43 0.88 8.85 1.13 2.27 C 1.41 1.98 1.98 1.41 2.27 1.13 Z" />
</g>
<g id="#9e9e9e9e">
<path fill="#9e9e9e" opacity="0.62" d=" M 2.76 2.78 C 8.42 0.66 15.64 1.96 21.21 2.79 C 15.06 3.00 8.91 3.01 2.76 2.78 Z" />
</g>
<g id="#c9c9c9c9">
<path fill="#c9c9c9" opacity="0.79" d=" M 2.46 17.18 C 2.53 12.43 1.17 6.85 2.76 2.78 C 8.91 3.01 15.06 3.00 21.21 2.79 C 21.11 7.22 21.00 11.66 21.19 16.10 L 20.28 16.38 C 20.18 12.26 20.05 8.15 19.91 4.04 C 14.62 3.89 9.32 3.90 4.03 4.05 C 4.02 5.80 4.02 9.30 4.01 11.05 C 5.39 10.04 6.63 8.86 8.04 7.89 C 9.67 8.96 10.99 10.42 12.33 11.82 C 12.05 12.12 11.49 12.72 11.21 13.02 C 10.23 11.87 9.33 10.57 8.00 9.81 C 5.73 11.20 3.92 13.37 3.53 16.06 C 3.26 16.34 2.73 16.90 2.46 17.18 Z" />
</g>
<g id="#abababab">
<path fill="#ababab" opacity="0.67" d=" M 21.21 2.79 C 23.42 6.95 21.27 12.52 21.31 17.07 L 21.19 16.10 C 21.00 11.66 21.11 7.22 21.21 2.79 Z" />
</g>
<g id="#bcbcbcbc">
<path fill="#bcbcbc" opacity="0.74" d=" M 14.21 6.13 C 17.80 4.25 19.77 10.60 15.95 10.99 C 13.04 11.83 11.82 7.42 14.21 6.13 Z" />
</g>
<g id="#66666666">
<path fill="#666666" opacity="0.40" d=" M 12.33 11.82 C 13.27 12.79 14.15 13.84 14.91 14.96 C 12.81 19.07 6.90 16.07 3.53 16.06 C 6.69 16.06 9.84 16.02 13.00 15.99 C 12.43 14.98 11.80 14.01 11.21 13.02 C 11.49 12.72 12.05 12.12 12.33 11.82 Z" />
</g>
<g id="#f9f9f9f9">
<path fill="#f9f9f9" opacity="0.98" d=" M 3.53 16.06 C 6.90 16.07 12.81 19.07 14.91 14.96 C 15.78 17.31 18.31 17.35 20.28 16.38 L 21.19 16.10 L 21.31 17.07 L 21.37 17.78 C 19.33 17.93 17.29 18.08 15.26 18.33 C 11.35 18.13 7.44 17.99 3.54 18.10 L 2.49 17.91 L 2.46 17.18 C 2.73 16.90 3.26 16.34 3.53 16.06 Z" />
</g>
<g id="#15151515">
<path fill="#151515" opacity="0.08" d=" M 3.54 18.10 C 7.44 17.99 11.35 18.13 15.26 18.33 C 11.37 19.17 7.38 19.23 3.54 18.10 Z" />
</g>
<g id="#50505050">
<path fill="#505050" opacity="0.31" d=" M 1.00 22.01 L 1.93 21.97 C 8.65 22.02 15.38 21.99 22.10 21.97 L 23.01 22.01 L 23.02 23.00 C 15.67 23.00 8.33 23.00 0.99 23.00 L 1.00 22.01 Z" />
</g>
<g id="#ffffffff">
<path fill="#ffffff" opacity="1.00" d=" M 0.99 23.00 C 8.33 23.00 15.67 23.00 23.02 23.00 L 23.04 24.00 L 0.96 24.00 L 0.99 23.00 Z" />
</g>
</svg>
