<?xml version="1.0" encoding="UTF-8" ?>
<!DOCTYPE svg PUBLIC "-//W3C//DTD SVG 1.1//EN" "http://www.w3.org/Graphics/SVG/1.1/DTD/svg11.dtd">
<svg width="32pt" height="30pt" viewBox="0 0 32 30" version="1.1" xmlns="http://www.w3.org/2000/svg">
<g id="#2f2f2fbc">
<path fill="#2f2f2f" opacity="0.74" d=" M 6.41 3.34 C 7.62 2.57 8.82 1.78 10.10 1.12 C 11.71 1.60 13.11 2.56 14.51 3.46 C 16.40 2.45 18.89 0.01 20.96 2.04 C 23.33 3.11 20.74 5.46 20.34 7.10 C 22.58 7.05 24.83 7.02 27.07 7.00 C 27.10 9.05 27.10 11.09 27.19 13.14 C 26.97 11.45 26.69 9.77 26.43 8.09 C 23.29 7.86 20.12 7.83 16.98 8.09 C 16.99 9.07 17.02 11.04 17.03 12.02 C 19.95 12.04 22.87 12.10 25.80 12.19 C 23.76 12.46 21.71 12.71 19.67 12.93 C 17.70 12.57 16.00 14.69 17.77 16.19 C 15.82 19.25 15.64 22.97 17.23 26.22 L 15.76 26.10 C 11.84 25.93 7.93 26.04 4.01 25.99 C 3.98 21.96 3.99 17.94 4.00 13.92 C 3.48 13.72 2.43 13.30 1.91 13.09 C 1.95 11.08 1.98 9.06 2.03 7.05 C 4.39 7.02 6.74 7.03 9.09 7.05 C 8.20 5.81 7.30 4.57 6.41 3.34 M 8.31 2.61 C 8.93 5.61 11.54 7.01 14.38 7.29 C 13.48 4.54 11.45 2.28 8.31 2.61 M 14.67 7.23 C 17.60 7.08 20.18 5.59 20.78 2.53 C 17.64 2.30 15.64 4.52 14.67 7.23 M 3.45 8.43 C 3.38 9.65 3.32 10.86 3.25 12.07 C 6.16 12.11 9.08 12.12 12.00 12.15 C 12.00 10.87 12.00 9.59 12.00 8.32 C 9.15 8.38 6.30 8.41 3.45 8.43 M 13.69 11.00 C 13.71 15.82 13.39 20.69 14.22 25.46 C 15.45 19.72 15.91 13.68 15.09 7.85 C 13.51 8.10 13.86 9.89 13.69 11.00 M 5.40 13.81 C 5.49 17.38 5.49 20.96 5.42 24.53 C 7.61 24.54 9.79 24.62 11.98 24.61 C 12.00 20.94 12.00 17.26 12.00 13.58 C 9.80 13.68 7.60 13.69 5.40 13.81 Z" />
</g>
<g id="#0303030d">
<path fill="#030303" opacity="0.05" d=" M 8.31 2.61 C 11.45 2.28 13.48 4.54 14.38 7.29 C 11.54 7.01 8.93 5.61 8.31 2.61 Z" />
</g>
<g id="#04040410">
<path fill="#040404" opacity="0.06" d=" M 14.67 7.23 C 15.64 4.52 17.64 2.30 20.78 2.53 C 20.18 5.59 17.60 7.08 14.67 7.23 Z" />
</g>
<g id="#2a2a2ab6">
<path fill="#2a2a2a" opacity="0.71" d=" M 16.98 8.09 C 20.12 7.83 23.29 7.86 26.43 8.09 C 26.69 9.77 26.97 11.45 27.19 13.14 L 27.20 13.28 C 29.01 14.98 30.69 16.82 32.00 18.94 L 32.00 23.86 C 30.75 26.52 28.66 28.65 26.05 30.00 L 21.14 30.00 C 19.25 28.83 17.49 27.48 15.76 26.10 L 17.23 26.22 C 19.77 28.07 22.99 29.96 26.17 28.46 C 31.12 26.81 32.64 19.71 28.77 16.19 C 25.81 13.04 20.92 13.73 17.77 16.19 C 18.75 15.35 19.40 14.19 19.67 12.93 C 21.71 12.71 23.76 12.46 25.80 12.19 C 25.78 11.28 25.75 9.46 25.73 8.55 C 22.81 8.45 19.89 8.34 16.98 8.09 Z" />
</g>
<g id="#0d0d0d66">
<path fill="#0d0d0d" opacity="0.40" d=" M 17.77 16.19 C 16.00 14.69 17.70 12.57 19.67 12.93 C 19.40 14.19 18.75 15.35 17.77 16.19 Z" />
</g>
<g id="#ffffffff">
<path fill="#ffffff" opacity="1.00" d=" M 17.77 16.19 C 20.92 13.73 25.81 13.04 28.77 16.19 C 32.64 19.71 31.12 26.81 26.17 28.46 C 22.99 29.96 19.77 28.07 17.23 26.22 C 15.64 22.97 15.82 19.25 17.77 16.19 M 19.59 17.58 C 20.39 18.94 21.27 20.27 22.18 21.56 C 21.27 22.80 20.38 24.05 19.54 25.34 C 20.96 24.71 22.31 23.94 23.74 23.34 C 25.05 23.95 26.28 24.70 27.56 25.36 C 26.81 24.05 26.01 22.76 25.17 21.49 C 26.05 20.23 26.84 18.91 27.59 17.57 C 26.23 18.30 24.94 19.12 23.65 19.96 C 22.33 19.11 20.96 18.35 19.59 17.58 Z" />
</g>
<g id="#616161ff">
<path fill="#616161" opacity="1.00" d=" M 19.59 17.58 C 20.96 18.35 22.33 19.11 23.65 19.96 C 24.94 19.12 26.23 18.30 27.59 17.57 C 26.84 18.91 26.05 20.23 25.17 21.49 C 26.01 22.76 26.81 24.05 27.56 25.36 C 26.28 24.70 25.05 23.95 23.74 23.34 C 22.31 23.94 20.96 24.71 19.54 25.34 C 20.38 24.05 21.27 22.80 22.18 21.56 C 21.27 20.27 20.39 18.94 19.59 17.58 Z" />
</g>
</svg>
