<?xml version="1.0" encoding="UTF-8" ?>
<!DOCTYPE svg PUBLIC "-//W3C//DTD SVG 1.1//EN" "http://www.w3.org/Graphics/SVG/1.1/DTD/svg11.dtd">
<svg width="30pt" height="26pt" viewBox="0 0 30 26" version="1.1" xmlns="http://www.w3.org/2000/svg">
<g id="#03030312">
<path fill="#030303" opacity="0.07" d=" M 0.00 0.00 L 7.24 0.00 C 4.64 0.70 2.83 2.42 1.07 4.33 L 0.00 4.07 L 0.00 0.00 Z" />
<path fill="#030303" opacity="0.07" d=" M 15.96 4.94 C 19.97 4.95 23.98 4.99 27.98 5.05 C 28.13 10.41 27.92 15.76 27.50 21.10 C 27.26 19.82 26.99 18.55 26.70 17.28 C 23.93 16.84 20.76 15.06 18.16 16.92 C 19.07 18.13 20.20 19.30 20.10 20.94 C 18.73 21.02 17.36 21.03 15.99 20.96 C 16.01 15.62 16.00 10.28 15.96 4.94 M 17.98 8.00 L 18.03 8.95 C 20.43 8.54 25.11 10.22 26.02 8.00 L 25.97 7.05 C 23.57 7.46 18.89 5.78 17.98 8.00 M 17.98 11.00 L 18.03 11.95 C 20.43 11.54 25.11 13.22 26.02 11.00 L 25.97 10.05 C 23.57 10.46 18.89 8.78 17.98 11.00 M 17.98 14.00 L 18.03 14.95 C 20.43 14.54 25.11 16.22 26.02 14.00 L 25.97 13.05 C 23.57 13.46 18.89 11.78 17.98 14.00 Z" />
</g>
<g id="#282828cb">
<path fill="#282828" opacity="0.80" d=" M 7.24 0.00 L 7.96 0.00 C 7.98 1.31 8.04 2.61 8.14 3.92 C 9.61 3.95 12.55 4.03 14.02 4.07 C 14.02 4.51 14.01 5.40 14.00 5.85 C 13.53 5.75 12.59 5.54 12.13 5.44 C 9.67 6.26 3.24 3.30 2.00 6.05 C 1.94 10.68 1.82 15.31 2.03 19.93 L 2.10 20.92 C 4.88 20.89 10.43 20.84 13.20 20.81 L 14.06 20.86 C 14.54 20.88 15.51 20.94 15.99 20.96 C 17.36 21.03 18.73 21.02 20.10 20.94 C 20.20 19.30 19.07 18.13 18.16 16.92 C 20.76 15.06 23.93 16.84 26.70 17.28 C 26.99 18.55 27.26 19.82 27.50 21.10 C 27.72 22.12 27.95 23.13 28.19 24.15 C 25.45 25.96 20.43 23.63 16.77 23.73 C 18.26 23.17 19.80 22.78 21.30 22.24 C 18.96 22.38 16.62 22.57 14.29 22.80 C 9.84 22.09 5.32 21.96 0.82 22.10 C 1.00 16.18 0.98 10.26 1.07 4.33 C 2.83 2.42 4.64 0.70 7.24 0.00 M 21.03 18.00 C 21.51 20.10 22.59 21.65 24.98 21.02 C 26.05 17.77 23.59 17.62 21.03 18.00 Z" />
</g>
<g id="#0a0a0a31">
<path fill="#0a0a0a" opacity="0.19" d=" M 16.77 3.68 C 20.75 2.35 25.09 3.21 29.13 3.78 C 25.01 3.83 20.89 3.79 16.77 3.68 Z" />
</g>
<g id="#1b1b1b89">
<path fill="#1b1b1b" opacity="0.54" d=" M 0.00 4.07 L 1.07 4.33 C 0.98 10.26 1.00 16.18 0.82 22.10 L 0.00 21.75 L 0.00 4.07 Z" />
</g>
<g id="#242424b6">
<path fill="#242424" opacity="0.71" d=" M 14.02 4.07 C 14.49 4.03 15.44 3.94 15.92 3.89 L 15.96 4.94 C 16.00 10.28 16.01 15.62 15.99 20.96 C 15.51 20.94 14.54 20.88 14.06 20.86 C 14.01 15.85 14.03 10.85 14.00 5.85 C 14.01 5.40 14.02 4.51 14.02 4.07 Z" />
</g>
<g id="#2e2e2ee7">
<path fill="#2e2e2e" opacity="0.91" d=" M 15.92 3.89 L 16.77 3.68 C 20.89 3.79 25.01 3.83 29.13 3.78 C 28.99 9.61 29.02 15.44 29.27 21.26 C 28.96 22.25 28.60 23.21 28.19 24.15 C 27.95 23.13 27.72 22.12 27.50 21.10 C 27.92 15.76 28.13 10.41 27.98 5.05 C 23.98 4.99 19.97 4.95 15.96 4.94 L 15.92 3.89 Z" />
</g>
<g id="#18181879">
<path fill="#181818" opacity="0.47" d=" M 29.13 3.78 L 30.00 3.90 L 30.00 20.63 L 29.27 21.26 C 29.02 15.44 28.99 9.61 29.13 3.78 Z" />
</g>
<g id="#07070722">
<path fill="#070707" opacity="0.13" d=" M 2.00 6.05 C 3.24 3.30 9.67 6.26 12.13 5.44 C 8.76 5.76 5.39 6.01 2.00 6.05 Z" />
</g>
<g id="#1b1b1b87">
<path fill="#1b1b1b" opacity="0.53" d=" M 3.98 8.00 C 4.89 5.78 9.57 7.46 11.97 7.05 L 12.02 8.00 C 9.34 8.00 6.66 8.00 3.98 8.00 Z" />
</g>
<g id="#1b1b1b88">
<path fill="#1b1b1b" opacity="0.53" d=" M 17.98 8.00 C 18.89 5.78 23.57 7.46 25.97 7.05 L 26.02 8.00 C 23.34 8.00 20.66 8.00 17.98 8.00 Z" />
</g>
<g id="#2a2a2ad6">
<path fill="#2a2a2a" opacity="0.84" d=" M 3.98 8.00 C 6.66 8.00 9.34 8.00 12.02 8.00 C 11.11 10.22 6.43 8.54 4.03 8.95 L 3.98 8.00 Z" />
</g>
<g id="#2b2b2bd7">
<path fill="#2b2b2b" opacity="0.84" d=" M 17.98 8.00 C 20.66 8.00 23.34 8.00 26.02 8.00 C 25.11 10.22 20.43 8.54 18.03 8.95 L 17.98 8.00 Z" />
</g>
<g id="#14141468">
<path fill="#141414" opacity="0.41" d=" M 3.98 11.00 C 4.89 8.78 9.57 10.46 11.97 10.05 L 12.02 11.00 C 9.34 11.00 6.66 11.00 3.98 11.00 Z" />
</g>
<g id="#15151567">
<path fill="#151515" opacity="0.40" d=" M 17.98 11.00 C 18.89 8.78 23.57 10.46 25.97 10.05 L 26.02 11.00 C 23.34 11.00 20.66 11.00 17.98 11.00 Z" />
</g>
<g id="#2d2d2de6">
<path fill="#2d2d2d" opacity="0.90" d=" M 3.98 11.00 C 6.66 11.00 9.34 11.00 12.02 11.00 C 11.11 13.22 6.43 11.54 4.03 11.95 L 3.98 11.00 Z" />
<path fill="#2d2d2d" opacity="0.90" d=" M 3.98 14.00 C 6.66 14.00 9.34 14.00 12.02 14.00 C 11.11 16.22 6.43 14.54 4.03 14.95 L 3.98 14.00 Z" />
</g>
<g id="#2d2d2de5">
<path fill="#2d2d2d" opacity="0.90" d=" M 17.98 11.00 C 20.66 11.00 23.34 11.00 26.02 11.00 C 25.11 13.22 20.43 11.54 18.03 11.95 L 17.98 11.00 Z" />
</g>
<g id="#14141466">
<path fill="#141414" opacity="0.40" d=" M 3.98 14.00 C 4.89 11.78 9.57 13.46 11.97 13.05 L 12.02 14.00 C 9.34 14.00 6.66 14.00 3.98 14.00 Z" />
</g>
<g id="#14141467">
<path fill="#141414" opacity="0.40" d=" M 17.98 14.00 C 18.89 11.78 23.57 13.46 25.97 13.05 L 26.02 14.00 C 23.34 14.00 20.66 14.00 17.98 14.00 Z" />
</g>
<g id="#2d2d2de1">
<path fill="#2d2d2d" opacity="0.88" d=" M 17.98 14.00 C 20.66 14.00 23.34 14.00 26.02 14.00 C 25.11 16.22 20.43 14.54 18.03 14.95 L 17.98 14.00 Z" />
</g>
<g id="#14141464">
<path fill="#141414" opacity="0.39" d=" M 3.98 17.00 C 4.89 14.78 9.57 16.46 11.97 16.05 L 12.02 17.00 C 9.34 17.00 6.66 17.00 3.98 17.00 Z" />
</g>
<g id="#2d2d2de2">
<path fill="#2d2d2d" opacity="0.89" d=" M 3.98 17.00 C 6.66 17.00 9.34 17.00 12.02 17.00 C 11.11 19.22 6.43 17.54 4.03 17.95 L 3.98 17.00 Z" />
</g>
<g id="#0202020b">
<path fill="#020202" opacity="0.04" d=" M 21.03 18.00 C 23.59 17.62 26.05 17.77 24.98 21.02 C 22.59 21.65 21.51 20.10 21.03 18.00 Z" />
</g>
<g id="#15151569">
<path fill="#151515" opacity="0.41" d=" M 2.03 19.93 C 5.77 20.06 9.49 20.35 13.20 20.81 C 10.43 20.84 4.88 20.89 2.10 20.92 L 2.03 19.93 Z" />
</g>
<g id="#0202020c">
<path fill="#020202" opacity="0.05" d=" M 29.27 21.26 L 30.00 20.63 L 30.00 26.00 L 0.00 26.00 L 0.00 21.75 L 0.82 22.10 L 1.12 22.98 C 3.78 24.86 9.73 24.58 13.37 23.13 L 14.29 22.80 C 16.62 22.57 18.96 22.38 21.30 22.24 C 19.80 22.78 18.26 23.17 16.77 23.73 C 20.43 23.63 25.45 25.96 28.19 24.15 C 28.60 23.21 28.96 22.25 29.27 21.26 Z" />
</g>
<g id="#13131360">
<path fill="#131313" opacity="0.38" d=" M 0.82 22.10 C 5.32 21.96 9.84 22.09 14.29 22.80 L 13.37 23.13 C 9.29 23.09 5.20 23.04 1.12 22.98 L 0.82 22.10 Z" />
</g>
<g id="#2a2a2ad5">
<path fill="#2a2a2a" opacity="0.84" d=" M 1.12 22.98 C 5.20 23.04 9.29 23.09 13.37 23.13 C 9.73 24.58 3.78 24.86 1.12 22.98 Z" />
</g>
</svg>
