<?xml version="1.0" encoding="UTF-8" ?>
<!DOCTYPE svg PUBLIC "-//W3C//DTD SVG 1.1//EN" "http://www.w3.org/Graphics/SVG/1.1/DTD/svg11.dtd">
<svg width="34pt" height="31pt" viewBox="0 0 34 31" version="1.1" xmlns="http://www.w3.org/2000/svg">
<g id="#272727c4">
<path fill="#272727" opacity="0.77" d=" M 15.64 0.00 L 16.29 0.00 C 20.05 3.48 22.89 7.91 24.59 12.74 C 26.68 13.14 29.30 12.59 30.87 14.33 C 31.52 18.48 31.53 22.77 30.91 26.92 C 30.07 28.80 27.71 28.43 26.04 28.64 C 21.92 28.64 17.72 29.00 13.65 28.21 C 11.13 27.37 12.17 24.06 11.77 22.05 C 10.12 21.75 8.20 21.52 7.20 19.97 C 5.14 17.29 3.13 14.51 1.80 11.39 C 1.02 9.78 2.76 8.68 3.83 7.81 C 7.63 5.01 11.71 2.61 15.64 0.00 M 8.06 6.50 L 8.47 6.63 C 6.73 7.64 5.09 8.82 3.38 9.88 C 6.82 10.66 10.31 11.65 13.87 11.25 C 14.34 8.62 14.73 5.98 15.02 3.32 C 15.52 4.00 16.03 4.67 16.53 5.34 C 16.33 6.27 15.94 8.11 15.75 9.04 C 17.94 9.57 20.16 10.02 22.36 10.53 C 20.74 8.27 19.16 5.96 18.17 3.34 C 17.01 3.07 15.85 2.78 14.73 2.36 C 12.55 3.81 10.31 5.17 8.06 6.50 M 11.47 13.62 C 11.15 16.01 10.66 18.37 10.50 20.78 C 12.54 18.75 11.20 15.22 13.36 13.44 C 16.38 12.65 19.56 13.11 22.64 12.76 C 20.61 11.85 18.46 10.67 16.15 11.02 C 14.50 11.71 13.05 12.79 11.47 13.62 M 3.37 11.59 C 5.18 14.33 7.02 17.05 8.84 19.78 C 9.36 17.46 9.76 15.11 10.26 12.79 C 7.95 12.45 5.68 11.89 3.37 11.59 M 14.10 14.44 C 16.66 16.56 18.61 19.88 21.81 21.01 C 24.73 19.49 26.70 16.60 29.09 14.37 C 24.09 14.40 19.09 14.41 14.10 14.44 M 13.22 15.81 C 13.32 19.20 13.31 22.58 13.24 25.97 C 14.94 24.18 16.66 22.40 18.36 20.61 C 16.65 19.01 14.94 17.41 13.22 15.81 M 24.93 20.60 C 26.57 22.26 28.21 23.93 29.87 25.58 C 29.79 22.33 29.81 19.08 29.92 15.83 C 28.25 17.41 26.60 19.02 24.93 20.60 M 19.08 22.21 C 17.44 23.81 15.80 25.40 14.19 27.03 C 19.20 27.02 24.21 27.02 29.22 27.04 C 27.59 25.39 25.92 23.78 24.25 22.17 C 22.53 22.14 20.80 22.21 19.08 22.21 Z" />
</g>
<g id="#282828c8">
<path fill="#282828" opacity="0.78" d=" M 11.38 6.38 C 11.64 6.64 11.64 6.64 11.38 6.38 Z" />
</g>
<g id="#252525bb">
<path fill="#252525" opacity="0.73" d=" M 8.47 6.63 C 9.50 6.83 10.11 7.45 10.28 8.48 C 9.82 8.47 8.89 8.44 8.43 8.42 C 8.44 7.97 8.46 7.08 8.47 6.63 Z" />
</g>
<g id="#2c2c2ce0">
<path fill="#2c2c2c" opacity="0.88" d=" M 10.17 9.86 C 9.88 8.63 11.71 7.30 12.84 7.86 C 13.15 9.15 11.30 10.32 10.17 9.86 Z" />
</g>
<g id="#272727c5">
<path fill="#272727" opacity="0.77" d=" M 19.53 15.46 C 20.65 14.68 22.45 14.67 23.56 15.46 C 23.41 16.96 19.69 16.94 19.53 15.46 Z" />
</g>
<g id="#282828cc">
<path fill="#282828" opacity="0.80" d=" M 20.57 18.59 C 19.92 16.96 23.27 16.91 22.67 18.56 C 22.14 18.56 21.09 18.58 20.57 18.59 Z" />
</g>
</svg>
