<?xml version="1.0" encoding="UTF-8" ?>
<!DOCTYPE svg PUBLIC "-//W3C//DTD SVG 1.1//EN" "http://www.w3.org/Graphics/SVG/1.1/DTD/svg11.dtd">
<svg width="27pt" height="28pt" viewBox="0 0 27 28" version="1.1" xmlns="http://www.w3.org/2000/svg">
<g id="#222222aa">
<path fill="#222222" opacity="0.67" d=" M 12.15 0.00 L 13.88 0.00 C 14.65 0.76 15.40 1.53 16.14 2.31 C 15.75 3.11 15.37 3.90 14.99 4.70 C 15.66 5.13 17.01 5.97 17.69 6.40 C 17.45 6.51 16.97 6.74 16.73 6.85 C 14.33 6.58 11.93 6.77 9.52 6.87 L 8.41 6.66 C 9.25 5.98 10.10 5.31 10.97 4.66 C 10.71 3.85 10.45 3.04 10.19 2.24 C 10.84 1.49 11.49 0.74 12.15 0.00 M 12.27 2.01 C 11.74 3.70 12.28 4.24 13.88 3.64 C 14.41 1.95 13.87 1.41 12.27 2.01 Z" />
</g>
<g id="#1a1a1a82">
<path fill="#1a1a1a" opacity="0.51" d=" M 17.69 6.40 C 17.92 7.20 18.16 8.00 18.40 8.80 C 19.91 9.10 21.98 8.70 22.83 10.35 C 23.03 11.41 23.19 12.48 23.31 13.56 C 25.32 15.43 26.30 17.97 26.28 20.71 C 25.36 19.71 24.34 18.85 23.21 18.11 C 22.99 19.17 23.06 20.21 23.41 21.24 C 21.80 22.19 19.90 21.99 18.11 22.01 C 18.40 23.55 18.68 25.09 18.98 26.62 C 17.83 25.49 16.52 24.56 15.22 23.62 C 15.85 23.13 16.47 22.65 17.10 22.17 C 17.70 21.58 18.26 20.94 18.77 20.27 C 19.44 20.22 20.78 20.12 21.46 20.07 C 22.21 18.61 23.09 17.22 24.07 15.91 C 23.38 15.91 21.98 15.91 21.29 15.91 C 21.67 14.85 21.91 13.76 22.00 12.63 C 21.94 12.25 21.81 11.48 21.74 11.10 C 21.04 11.11 19.63 11.12 18.92 11.12 C 17.65 10.26 16.38 9.42 15.11 8.57 C 15.51 8.14 16.33 7.28 16.73 6.85 C 16.97 6.74 17.45 6.51 17.69 6.40 Z" />
<path fill="#1a1a1a" opacity="0.51" d=" M 7.66 10.02 C 7.86 8.89 8.11 7.77 8.41 6.66 L 9.52 6.87 C 9.86 7.25 10.56 8.01 10.90 8.39 C 10.30 9.31 9.69 10.24 9.08 11.16 C 8.73 10.87 8.02 10.30 7.66 10.02 Z" />
</g>
<g id="#232323b2">
<path fill="#232323" opacity="0.70" d=" M 2.92 11.25 C 3.90 10.38 4.88 9.52 5.86 8.65 C 6.31 8.99 7.21 9.68 7.66 10.02 C 8.02 10.30 8.73 10.87 9.08 11.16 C 9.69 10.24 10.30 9.31 10.90 8.39 C 10.73 10.98 12.50 11.71 14.75 11.36 C 14.84 10.67 15.02 9.27 15.11 8.57 C 16.38 9.42 17.65 10.26 18.92 11.12 C 19.05 12.63 20.70 13.66 22.00 12.63 C 21.91 13.76 21.67 14.85 21.29 15.91 L 20.18 16.19 C 19.97 15.85 19.56 15.18 19.35 14.84 L 18.85 13.67 L 18.57 13.04 C 15.77 12.02 12.75 12.98 9.87 12.39 C 9.29 12.61 8.14 13.06 7.57 13.28 C 8.58 14.15 9.59 15.02 10.59 15.90 L 9.67 16.24 C 9.15 16.04 8.13 15.65 7.61 15.46 C 7.21 15.63 6.39 15.98 5.99 16.15 C 5.59 16.00 4.80 15.69 4.41 15.54 C 3.92 15.64 2.93 15.83 2.44 15.93 L 1.35 15.55 C 2.24 14.98 3.13 14.40 4.02 13.82 C 3.65 12.96 3.29 12.11 2.92 11.25 M 5.19 10.92 C 4.60 12.55 5.12 13.16 6.75 12.74 C 7.34 11.11 6.82 10.50 5.19 10.92 Z" />
</g>
<g id="#0303030f">
<path fill="#030303" opacity="0.06" d=" M 18.92 11.12 C 19.63 11.12 21.04 11.11 21.74 11.10 C 21.81 11.48 21.94 12.25 22.00 12.63 C 20.70 13.66 19.05 12.63 18.92 11.12 Z" />
</g>
<g id="#0202020d">
<path fill="#020202" opacity="0.05" d=" M 7.57 13.28 C 8.14 13.06 9.29 12.61 9.87 12.39 C 12.75 12.98 15.77 12.02 18.57 13.04 L 18.85 13.67 C 17.76 14.34 16.68 15.02 15.60 15.72 C 14.77 15.44 13.94 15.16 13.11 14.90 C 12.27 15.25 11.43 15.58 10.59 15.90 C 9.59 15.02 8.58 14.15 7.57 13.28 Z" />
</g>
<g id="#1818187c">
<path fill="#181818" opacity="0.49" d=" M 15.60 15.72 C 16.68 15.02 17.76 14.34 18.85 13.67 L 19.35 14.84 C 18.52 15.52 17.68 16.19 16.83 16.85 C 17.32 16.99 18.31 17.26 18.81 17.40 C 17.83 18.47 16.87 19.55 15.90 20.63 C 15.93 19.75 16.00 18.00 16.03 17.12 L 14.89 17.00 C 14.17 16.99 12.71 16.98 11.99 16.97 C 11.48 16.96 10.48 16.94 9.98 16.93 C 10.29 18.26 10.63 19.59 10.79 20.95 C 10.66 21.66 10.40 23.06 10.27 23.77 L 12.11 22.14 C 12.00 23.38 11.89 24.62 11.77 25.86 C 12.53 26.00 14.04 26.26 14.80 26.40 C 16.28 26.70 17.76 26.99 19.24 27.31 L 19.58 28.00 L 7.48 28.00 L 7.88 27.27 C 9.10 26.80 10.22 26.18 11.25 25.41 C 11.00 24.79 10.63 24.24 10.14 23.79 C 9.59 24.52 8.49 25.99 7.93 26.73 C 8.06 25.05 8.29 23.39 8.62 21.74 C 9.02 20.17 9.03 18.56 8.56 17.00 C 8.84 16.81 9.39 16.43 9.67 16.24 L 10.59 15.90 C 11.43 15.58 12.27 15.25 13.11 14.90 C 13.94 15.16 14.77 15.44 15.60 15.72 Z" />
</g>
<g id="#1a1a1a84">
<path fill="#1a1a1a" opacity="0.52" d=" M 0.00 20.02 C 0.41 18.52 0.87 17.03 1.35 15.55 L 2.44 15.93 C 2.80 16.34 3.53 17.18 3.90 17.59 C 2.59 18.66 1.27 19.72 0.00 20.84 L 0.00 20.02 Z" />
</g>
<g id="#282828ca">
<path fill="#282828" opacity="0.79" d=" M 9.98 16.93 C 10.48 16.94 11.48 16.96 11.99 16.97 C 10.72 19.88 15.80 19.86 14.89 17.00 L 16.03 17.12 C 16.00 18.00 15.93 19.75 15.90 20.63 C 16.87 19.55 17.83 18.47 18.81 17.40 C 18.80 18.12 18.78 19.56 18.77 20.27 C 18.26 20.94 17.70 21.58 17.10 22.17 C 16.60 21.89 15.58 21.32 15.08 21.04 C 13.74 22.23 12.19 21.57 10.79 20.95 C 10.63 19.59 10.29 18.26 9.98 16.93 Z" />
</g>
<g id="#0505051a">
<path fill="#050505" opacity="0.10" d=" M 11.99 16.97 C 12.71 16.98 14.17 16.99 14.89 17.00 C 15.80 19.86 10.72 19.88 11.99 16.97 Z" />
</g>
<g id="#232323af">
<path fill="#232323" opacity="0.69" d=" M 0.00 20.84 C 1.27 19.72 2.59 18.66 3.90 17.59 C 4.01 18.28 4.22 19.65 4.33 20.33 C 6.85 20.96 8.33 19.53 8.56 17.00 C 9.03 18.56 9.02 20.17 8.62 21.74 C 5.75 21.71 2.88 21.68 0.00 21.70 L 0.00 20.84 Z" />
</g>
<g id="#272727c5">
<path fill="#272727" opacity="0.77" d=" M 23.41 21.24 C 23.06 20.21 22.99 19.17 23.21 18.11 C 24.34 18.85 25.36 19.71 26.28 20.71 C 26.53 22.24 24.18 21.73 23.41 21.24 Z" />
</g>
<g id="#0202020c">
<path fill="#020202" opacity="0.05" d=" M 10.79 20.95 C 12.19 21.57 13.74 22.23 15.08 21.04 C 15.58 21.32 16.60 21.89 17.10 22.17 C 16.47 22.65 15.85 23.13 15.22 23.62 C 15.12 24.31 14.90 25.70 14.80 26.40 C 14.04 26.26 12.53 26.00 11.77 25.86 C 11.89 24.62 12.00 23.38 12.11 22.14 L 10.27 23.77 C 10.40 23.06 10.66 21.66 10.79 20.95 Z" />
</g>
<g id="#2c2c2cdf">
<path fill="#2c2c2c" opacity="0.87" d=" M 10.14 23.79 C 10.63 24.24 11.00 24.79 11.25 25.41 C 10.22 26.18 9.10 26.80 7.88 27.27 L 7.93 26.73 C 8.49 25.99 9.59 24.52 10.14 23.79 Z" />
</g>
<g id="#272727c7">
<path fill="#272727" opacity="0.78" d=" M 15.22 23.62 C 16.52 24.56 17.83 25.49 18.98 26.62 L 19.24 27.31 C 17.76 26.99 16.28 26.70 14.80 26.40 C 14.90 25.70 15.12 24.31 15.22 23.62 Z" />
</g>
</svg>
