<?xml version="1.0" encoding="UTF-8" ?>
<!DOCTYPE svg PUBLIC "-//W3C//DTD SVG 1.1//EN" "http://www.w3.org/Graphics/SVG/1.1/DTD/svg11.dtd">
<svg width="26pt" height="26pt" viewBox="0 0 26 26" version="1.1" xmlns="http://www.w3.org/2000/svg">
<g id="#2f2f2fec">
<path fill="#2f2f2f" opacity="0.93" d=" M 2.05 0.92 C 6.34 0.92 10.62 0.90 14.91 0.95 C 15.63 1.64 16.35 2.34 17.08 3.03 C 17.09 4.87 17.10 6.70 17.10 8.53 C 19.65 8.91 23.08 7.86 24.83 10.30 C 25.39 13.60 25.12 16.96 25.19 20.28 C 22.58 21.73 20.01 23.28 17.70 25.17 C 17.59 24.13 17.49 23.10 17.38 22.06 C 15.60 22.05 13.83 22.04 12.06 22.03 C 11.43 21.33 10.80 20.64 10.17 19.95 C 10.05 18.42 9.92 16.88 9.78 15.35 C 9.14 16.79 8.56 18.25 7.96 19.71 C 6.85 18.55 5.73 17.39 4.62 16.23 C 3.94 16.17 2.59 16.06 1.92 16.00 C 1.27 15.23 0.63 14.45 0.00 13.66 L 0.00 3.38 C 0.67 2.55 1.35 1.73 2.05 0.92 M 2.57 2.57 C 0.49 5.13 1.73 8.92 1.52 11.99 C 1.34 14.85 4.95 14.72 6.67 16.05 C 7.76 15.42 8.87 14.83 10.00 14.28 C 10.04 13.86 10.11 13.02 10.15 12.60 C 7.84 12.39 5.30 11.83 4.38 9.37 C 5.91 9.89 7.37 10.65 8.97 10.93 C 10.29 10.78 11.10 9.54 12.14 8.86 C 13.37 8.74 14.60 8.64 15.83 8.54 C 15.52 6.58 16.39 3.99 14.62 2.58 C 10.63 2.21 6.57 2.21 2.57 2.57 M 12.21 10.40 C 10.68 13.38 11.88 17.08 11.75 20.34 C 14.36 20.48 17.10 20.38 19.45 21.70 C 20.83 21.03 22.28 20.48 23.56 19.64 C 23.49 16.61 24.87 12.65 22.61 10.24 C 19.16 9.98 15.63 9.82 12.21 10.40 Z" />
<path fill="#2f2f2f" opacity="0.93" d=" M 6.27 5.37 C 7.75 5.25 7.88 7.72 6.36 7.67 C 4.88 7.79 4.76 5.32 6.27 5.37 Z" />
<path fill="#2f2f2f" opacity="0.93" d=" M 10.03 5.43 C 11.42 4.36 13.43 6.69 11.74 7.67 C 10.34 8.74 8.40 6.44 10.03 5.43 Z" />
<path fill="#2f2f2f" opacity="0.93" d=" M 18.74 12.33 C 20.36 11.77 20.94 12.30 20.47 13.93 C 18.86 14.49 18.28 13.96 18.74 12.33 Z" />
</g>
<g id="#252525b6">
<path fill="#252525" opacity="0.71" d=" M 15.01 12.29 C 16.63 11.74 17.21 12.29 16.75 13.91 C 15.13 14.46 14.55 13.92 15.01 12.29 Z" />
</g>
<g id="#2d2d2de1">
<path fill="#2d2d2d" opacity="0.88" d=" M 13.87 15.76 C 16.50 15.60 19.14 15.59 21.76 15.75 C 20.91 16.98 20.02 18.20 19.12 19.40 C 16.74 19.18 14.74 18.10 13.87 15.76 M 17.23 17.00 C 17.23 20.34 20.28 15.59 17.23 17.00 Z" />
</g>
<g id="#14141462">
<path fill="#141414" opacity="0.38" d=" M 17.23 17.00 C 20.28 15.59 17.23 20.34 17.23 17.00 Z" />
</g>
</svg>
