<?xml version="1.0" encoding="UTF-8" ?>
<!DOCTYPE svg PUBLIC "-//W3C//DTD SVG 1.1//EN" "http://www.w3.org/Graphics/SVG/1.1/DTD/svg11.dtd">
<svg width="30pt" height="27pt" viewBox="0 0 30 27" version="1.1" xmlns="http://www.w3.org/2000/svg">
<g id="#202020b4">
<path fill="#202020" opacity="0.71" d=" M 16.25 0.00 L 17.86 0.00 C 18.61 1.41 18.35 2.44 17.05 3.10 C 15.75 2.44 15.48 1.40 16.25 0.00 Z" />
</g>
<g id="#1b1b1b9d">
<path fill="#1b1b1b" opacity="0.62" d=" M 9.35 1.61 C 10.65 0.70 12.66 2.76 11.78 4.05 C 10.46 5.00 8.45 2.92 9.35 1.61 Z" />
</g>
<g id="#262626d9">
<path fill="#262626" opacity="0.85" d=" M 21.38 4.71 C 22.20 3.29 23.33 2.19 24.77 1.41 C 23.94 2.88 22.96 4.26 21.96 5.62 C 22.41 6.43 22.85 7.23 23.30 8.04 C 25.43 8.38 28.85 8.29 29.17 11.12 C 29.57 15.67 29.79 20.36 29.02 24.88 C 27.18 26.74 24.33 25.93 22.00 26.14 C 15.42 25.91 8.81 26.43 2.25 25.89 C -0.40 24.27 0.75 20.60 0.42 18.01 C 0.82 15.05 -0.59 11.08 2.08 8.94 C 4.69 8.36 7.49 9.01 10.03 8.20 C 10.94 7.18 11.65 6.02 12.43 4.90 C 15.41 4.84 18.40 4.83 21.38 4.71 M 13.41 6.35 C 12.25 8.08 10.98 9.79 9.01 10.67 C 9.00 15.33 8.99 19.99 9.00 24.65 C 15.32 24.60 21.69 25.13 27.97 24.16 C 27.55 19.16 28.84 13.93 26.88 9.15 C 26.34 10.14 26.19 11.29 26.68 12.34 L 26.66 12.88 C 25.77 13.63 24.66 13.08 23.67 12.93 C 24.61 11.33 25.31 9.25 22.38 9.52 C 21.74 8.47 21.12 7.41 20.51 6.35 C 18.14 6.37 15.78 6.37 13.41 6.35 M 2.09 11.98 C 1.90 15.94 2.09 19.91 2.02 23.87 C 2.98 24.28 3.93 24.69 4.88 25.09 C 5.03 19.91 5.06 14.71 4.89 9.53 C 3.94 10.22 1.83 10.32 2.09 11.98 M 6.14 9.38 C 6.11 14.83 5.30 20.44 6.90 25.74 C 8.67 21.06 8.30 15.89 7.76 11.01 C 7.36 10.61 6.55 9.79 6.14 9.38 Z" />
<path fill="#262626" opacity="0.85" d=" M 14.41 7.88 C 15.04 6.48 17.82 6.92 19.06 7.52 C 18.43 8.92 15.65 8.51 14.41 7.88 Z" />
</g>
<g id="#1b1b1b9c">
<path fill="#1b1b1b" opacity="0.61" d=" M 1.71 6.73 C 3.84 6.47 6.53 5.63 7.76 8.08 C 5.70 7.98 3.26 8.60 1.71 6.73 Z" />
</g>
<g id="#1515157c">
<path fill="#151515" opacity="0.49" d=" M 6.14 9.38 C 6.55 9.79 7.36 10.61 7.76 11.01 C 8.30 15.89 8.67 21.06 6.90 25.74 C 5.30 20.44 6.11 14.83 6.14 9.38 Z" />
</g>
<g id="#252525d3">
<path fill="#252525" opacity="0.83" d=" M 14.38 11.27 C 18.68 9.21 24.13 13.20 23.39 17.92 C 22.99 23.11 15.76 25.47 12.30 21.63 C 9.00 18.62 10.36 12.89 14.38 11.27 M 13.16 13.11 C 15.31 14.26 17.92 14.51 20.30 14.10 L 20.39 13.53 C 18.29 11.60 15.54 12.52 13.16 13.11 M 20.30 14.10 C 20.43 14.23 20.69 14.49 20.83 14.62 C 20.69 14.49 20.43 14.23 20.30 14.10 M 12.25 15.25 C 10.68 18.31 13.72 22.32 17.04 22.11 C 20.68 22.29 23.55 17.42 20.83 14.62 C 22.18 18.05 19.36 20.19 16.95 22.02 C 15.82 20.85 14.13 20.03 13.54 18.45 C 12.98 17.48 13.21 15.87 12.25 15.25 M 14.45 15.43 C 13.53 17.53 15.43 19.07 16.98 20.12 C 18.50 19.09 20.59 17.52 19.50 15.43 C 17.83 15.68 16.13 15.68 14.45 15.43 Z" />
</g>
<g id="#06060620">
<path fill="#060606" opacity="0.13" d=" M 20.30 14.10 C 20.43 14.23 20.69 14.49 20.83 14.62 C 20.69 14.49 20.43 14.23 20.30 14.10 Z" />
</g>
<g id="#04040415">
<path fill="#040404" opacity="0.08" d=" M 14.45 15.43 C 16.13 15.68 17.83 15.68 19.50 15.43 C 20.59 17.52 18.50 19.09 16.98 20.12 C 15.43 19.07 13.53 17.53 14.45 15.43 Z" />
</g>
</svg>
