<?xml version="1.0" encoding="UTF-8" ?>
<!DOCTYPE svg PUBLIC "-//W3C//DTD SVG 1.1//EN" "http://www.w3.org/Graphics/SVG/1.1/DTD/svg11.dtd">
<svg width="23pt" height="28pt" viewBox="0 0 23 28" version="1.1" xmlns="http://www.w3.org/2000/svg">
<g id="#292929d0">
<path fill="#292929" opacity="0.82" d=" M 6.58 0.00 L 7.32 0.00 C 8.62 0.91 9.87 1.90 11.11 2.89 C 12.36 1.98 13.58 1.01 14.94 0.26 C 16.60 0.66 18.18 1.33 19.78 1.91 C 18.55 4.78 16.72 7.31 14.74 9.70 C 17.27 8.58 19.80 7.45 22.32 6.32 C 21.38 7.46 20.46 8.62 19.55 9.79 C 22.14 12.97 21.22 17.28 21.35 21.06 C 21.15 23.09 21.71 26.31 18.94 26.69 C 15.34 27.21 11.68 26.91 8.05 26.98 C 6.03 26.85 3.65 27.23 2.03 25.71 C 1.06 21.88 1.44 17.85 1.55 13.95 C 1.48 12.24 2.62 10.92 3.51 9.59 C 2.69 8.48 1.89 7.36 1.09 6.23 C 3.26 7.31 5.41 8.44 7.58 9.51 C 5.85 7.34 4.16 5.15 2.52 2.92 C 3.85 1.92 5.19 0.92 6.58 0.00 M 5.07 2.49 C 5.43 3.55 5.79 4.60 6.14 5.66 C 7.65 6.92 9.17 8.17 10.76 9.34 C 10.38 7.05 9.79 4.81 9.01 2.63 C 7.69 2.60 6.38 2.55 5.07 2.49 M 14.43 1.52 C 12.71 3.79 11.94 6.53 11.84 9.36 C 13.77 7.35 18.76 5.35 17.01 2.00 C 16.19 2.48 15.38 2.96 14.57 3.44 L 14.43 1.52 M 2.92 11.86 C 3.08 13.21 3.23 14.57 3.39 15.92 C 3.54 13.40 4.92 11.65 7.50 11.46 C 6.37 12.85 5.19 14.18 4.01 15.52 C 5.68 15.46 7.35 15.41 9.01 15.35 C 8.97 13.94 8.93 12.53 8.89 11.11 C 6.89 11.33 4.90 11.56 2.92 11.86 M 11.19 10.50 C 10.86 15.56 9.85 21.05 11.73 25.90 C 11.90 20.80 12.76 15.46 11.19 10.50 M 13.92 11.10 C 13.86 12.55 13.80 13.99 13.74 15.43 C 15.77 15.39 17.80 15.35 19.83 15.29 C 19.81 14.45 19.76 12.77 19.74 11.93 C 17.81 11.60 15.87 11.35 13.92 11.10 M 3.10 17.01 C 3.12 19.67 3.12 22.33 3.13 24.98 C 5.09 25.10 7.04 25.18 8.99 25.27 C 9.00 22.51 9.00 19.76 9.00 17.00 C 7.03 17.00 5.06 17.01 3.10 17.01 M 13.79 17.00 C 13.79 19.75 13.78 22.50 13.78 25.25 C 15.74 25.16 17.70 25.08 19.66 24.94 C 19.68 22.32 19.70 19.70 19.75 17.07 C 17.76 17.04 15.78 17.01 13.79 17.00 Z" />
</g>
<g id="#333333ff">
<path fill="#333333" opacity="1.00" d=" M 6.23 3.21 C 6.79 3.79 6.79 3.79 6.23 3.21 Z" />
</g>
</svg>
