<?xml version="1.0" encoding="UTF-8" ?>
<!DOCTYPE svg PUBLIC "-//W3C//DTD SVG 1.1//EN" "http://www.w3.org/Graphics/SVG/1.1/DTD/svg11.dtd">
<svg width="24pt" height="26pt" viewBox="0 0 24 26" version="1.1" xmlns="http://www.w3.org/2000/svg">
<g id="#212121bb">
<path fill="#212121" opacity="0.73" d=" M 4.11 6.07 C 7.10 4.52 9.53 1.61 12.83 0.88 C 15.57 2.35 17.93 4.41 20.56 6.06 C 21.68 7.61 22.84 9.13 24.00 10.65 L 24.00 22.47 C 22.87 23.49 21.81 24.94 20.11 24.87 C 15.05 25.16 9.96 25.15 4.90 24.88 C 3.18 24.91 1.27 23.87 1.15 21.98 C 0.73 18.15 1.01 14.29 1.06 10.45 C 2.07 8.99 3.09 7.53 4.11 6.07 M 12.30 1.85 C 11.00 3.02 9.70 4.18 8.42 5.36 C 11.11 5.37 13.80 5.34 16.49 5.30 C 15.10 4.14 13.71 2.99 12.30 1.85 M 5.00 6.89 C 5.00 8.69 5.00 10.48 5.00 12.28 C 6.55 12.18 8.09 12.08 9.64 11.97 C 9.16 12.52 8.19 13.62 7.71 14.16 C 9.21 14.63 10.78 14.80 12.35 14.71 C 15.31 15.28 17.66 13.24 19.99 11.80 C 20.00 10.19 20.00 8.58 20.00 6.97 C 15.00 6.87 10.00 6.86 5.00 6.89 M 3.25 10.25 C 3.78 10.74 3.78 10.74 3.25 10.25 M 21.28 10.26 C 21.80 10.79 21.80 10.79 21.28 10.26 M 15.71 16.04 C 17.84 18.05 19.99 20.04 22.14 22.03 C 22.11 18.72 22.10 15.41 22.15 12.10 C 20.01 13.43 17.88 14.76 15.71 16.04 M 2.66 12.36 C 2.68 15.58 2.67 18.80 2.60 22.02 C 4.75 20.08 6.92 18.16 9.12 16.26 C 6.97 14.95 4.82 13.65 2.66 12.36 M 3.63 23.09 C 9.53 23.02 15.43 23.00 21.33 23.11 C 18.46 20.70 15.81 18.02 12.78 15.82 C 9.14 17.29 6.64 20.65 3.63 23.09 Z" />
</g>
<g id="#03030311">
<path fill="#030303" opacity="0.07" d=" M 12.30 1.85 C 13.71 2.99 15.10 4.14 16.49 5.30 C 13.80 5.34 11.11 5.37 8.42 5.36 C 9.70 4.18 11.00 3.02 12.30 1.85 Z" />
</g>
<g id="#06060625">
<path fill="#060606" opacity="0.15" d=" M 5.00 6.89 C 10.00 6.86 15.00 6.87 20.00 6.97 C 20.00 8.58 20.00 10.19 19.99 11.80 C 17.66 13.24 15.31 15.28 12.35 14.71 C 10.78 14.80 9.21 14.63 7.71 14.16 C 8.19 13.62 9.16 12.52 9.64 11.97 C 8.09 12.08 6.55 12.18 5.00 12.28 C 5.00 10.48 5.00 8.69 5.00 6.89 M 6.01 7.66 L 6.06 9.02 C 8.89 9.05 11.76 9.01 14.52 8.29 C 11.71 7.78 8.86 7.67 6.01 7.66 M 15.55 7.99 C 15.68 9.39 16.35 9.65 17.56 8.77 C 17.42 7.37 16.75 7.11 15.55 7.99 M 6.54 10.15 C 6.74 11.51 7.44 11.75 8.63 10.85 C 8.44 9.49 7.74 9.25 6.54 10.15 M 11.09 10.35 C 12.48 11.55 16.55 11.55 17.97 10.37 C 15.84 9.66 13.21 9.61 11.09 10.35 M 11.21 12.17 C 11.44 15.49 14.17 10.57 11.21 12.17 M 14.33 12.18 C 14.54 15.50 17.28 10.57 14.33 12.18 Z" />
</g>
<g id="#1f1f1fb2">
<path fill="#1f1f1f" opacity="0.70" d=" M 6.01 7.66 C 8.86 7.67 11.71 7.78 14.52 8.29 C 11.76 9.01 8.89 9.05 6.06 9.02 L 6.01 7.66 Z" />
</g>
<g id="#202020b9">
<path fill="#202020" opacity="0.73" d=" M 15.55 7.99 C 16.75 7.11 17.42 7.37 17.56 8.77 C 16.35 9.65 15.68 9.39 15.55 7.99 Z" />
</g>
<g id="#0f0f0f55">
<path fill="#0f0f0f" opacity="0.33" d=" M 3.25 10.25 C 3.78 10.74 3.78 10.74 3.25 10.25 Z" />
</g>
<g id="#252525d9">
<path fill="#252525" opacity="0.85" d=" M 6.54 10.15 C 7.74 9.25 8.44 9.49 8.63 10.85 C 7.44 11.75 6.74 11.51 6.54 10.15 Z" />
</g>
<g id="#272727e4">
<path fill="#272727" opacity="0.89" d=" M 11.09 10.35 C 13.21 9.61 15.84 9.66 17.97 10.37 C 16.55 11.55 12.48 11.55 11.09 10.35 Z" />
</g>
<g id="#08080834">
<path fill="#080808" opacity="0.20" d=" M 21.28 10.26 C 21.80 10.79 21.80 10.79 21.28 10.26 Z" />
</g>
<g id="#222222c3">
<path fill="#222222" opacity="0.76" d=" M 11.21 12.17 C 14.17 10.57 11.44 15.49 11.21 12.17 Z" />
</g>
<g id="#1c1c1c9f">
<path fill="#1c1c1c" opacity="0.62" d=" M 14.33 12.18 C 17.28 10.57 14.54 15.50 14.33 12.18 Z" />
</g>
</svg>
