<?xml version="1.0" encoding="UTF-8" ?>
<!DOCTYPE svg PUBLIC "-//W3C//DTD SVG 1.1//EN" "http://www.w3.org/Graphics/SVG/1.1/DTD/svg11.dtd">
<svg width="26pt" height="23pt" viewBox="0 0 26 23" version="1.1" xmlns="http://www.w3.org/2000/svg">
<g id="#262626c1">
<path fill="#262626" opacity="0.76" d=" M 21.40 0.00 L 21.60 0.00 C 26.83 6.08 25.04 14.40 25.04 21.71 C 24.61 22.04 23.76 22.68 23.34 23.00 L 19.91 23.00 C 19.43 22.68 18.45 22.05 17.96 21.74 C 17.87 16.88 17.43 11.97 18.12 7.14 C 18.47 4.46 20.39 2.42 21.40 0.00 M 21.49 3.27 C 20.77 4.45 20.19 5.69 19.74 6.99 C 20.67 6.99 22.54 6.98 23.48 6.98 C 23.00 5.65 22.35 4.39 21.49 3.27 M 18.94 8.10 C 18.86 11.83 18.81 15.56 19.07 19.28 C 21.27 16.00 19.74 11.74 19.99 8.05 L 18.94 8.10 M 23.01 8.14 C 23.03 11.89 22.85 15.65 23.17 19.39 C 24.84 15.89 23.57 11.82 24.00 8.09 L 23.01 8.14 M 21.09 8.18 C 20.95 11.51 21.02 14.86 20.99 18.20 L 21.99 18.17 C 21.54 14.91 23.04 10.98 21.09 8.18 M 19.49 20.08 C 19.47 23.44 22.47 18.67 19.49 20.08 M 22.14 20.12 C 22.27 23.47 25.06 18.56 22.14 20.12 Z" />
<path fill="#262626" opacity="0.76" d=" M 0.00 1.84 L 0.07 1.90 C 0.53 2.20 1.45 2.81 1.91 3.11 C 1.86 8.76 1.78 14.42 1.96 20.07 C 1.47 20.37 0.50 20.98 0.02 21.29 L 0.00 21.30 L 0.00 1.84 Z" />
</g>
<g id="#2a2a2ad5">
<path fill="#2a2a2a" opacity="0.84" d=" M 0.07 1.90 C 5.02 -0.18 10.65 0.82 15.86 1.02 C 16.13 1.30 16.66 1.86 16.93 2.13 C 17.34 7.09 16.81 12.07 17.10 17.03 C 17.01 18.82 17.61 22.07 14.97 22.18 C 10.00 22.33 4.80 23.00 0.02 21.29 C 0.50 20.98 1.47 20.37 1.96 20.07 C 2.22 20.37 2.73 20.97 2.99 21.27 C 2.99 14.76 3.01 8.25 2.98 1.74 C 2.71 2.08 2.18 2.77 1.91 3.11 C 1.45 2.81 0.53 2.20 0.07 1.90 M 4.00 14.01 C 4.35 16.31 2.88 19.71 5.05 21.24 C 5.15 14.71 5.36 8.18 4.95 1.66 C 2.81 5.29 4.62 9.97 4.00 14.01 M 6.61 2.14 C 6.57 8.38 6.57 14.63 6.61 20.87 C 9.43 20.27 13.58 22.12 15.59 19.84 C 15.61 14.13 15.96 8.24 15.34 2.63 C 12.51 1.87 9.51 2.58 6.61 2.14 Z" />
</g>
<g id="#13131362">
<path fill="#131313" opacity="0.38" d=" M 4.00 14.01 C 4.62 9.97 2.81 5.29 4.95 1.66 C 5.36 8.18 5.15 14.71 5.05 21.24 C 2.88 19.71 4.35 16.31 4.00 14.01 Z" />
</g>
<g id="#272727c5">
<path fill="#272727" opacity="0.77" d=" M 13.17 3.06 C 14.43 3.05 15.02 3.67 14.95 4.94 C 13.41 5.22 12.82 4.59 13.17 3.06 Z" />
</g>
<g id="#0303030f">
<path fill="#030303" opacity="0.06" d=" M 21.49 3.27 C 22.35 4.39 23.00 5.65 23.48 6.98 C 22.54 6.98 20.67 6.99 19.74 6.99 C 20.19 5.69 20.77 4.45 21.49 3.27 Z" />
</g>
<g id="#17171776">
<path fill="#171717" opacity="0.46" d=" M 18.94 8.10 L 19.99 8.05 C 19.74 11.74 21.27 16.00 19.07 19.28 C 18.81 15.56 18.86 11.83 18.94 8.10 Z" />
</g>
<g id="#1212125b">
<path fill="#121212" opacity="0.36" d=" M 23.01 8.14 L 24.00 8.09 C 23.57 11.82 24.84 15.89 23.17 19.39 C 22.85 15.65 23.03 11.89 23.01 8.14 Z" />
</g>
<g id="#0c0c0c3f">
<path fill="#0c0c0c" opacity="0.25" d=" M 21.09 8.18 C 23.04 10.98 21.54 14.91 21.99 18.17 L 20.99 18.20 C 21.02 14.86 20.95 11.51 21.09 8.18 Z" />
</g>
<g id="#0a0a0a31">
<path fill="#0a0a0a" opacity="0.19" d=" M 19.49 20.08 C 22.47 18.67 19.47 23.44 19.49 20.08 Z" />
</g>
<g id="#0a0a0a34">
<path fill="#0a0a0a" opacity="0.20" d=" M 22.14 20.12 C 25.06 18.56 22.27 23.47 22.14 20.12 Z" />
</g>
</svg>
