<?xml version="1.0" encoding="UTF-8" ?>
<!DOCTYPE svg PUBLIC "-//W3C//DTD SVG 1.1//EN" "http://www.w3.org/Graphics/SVG/1.1/DTD/svg11.dtd">
<svg width="26pt" height="28pt" viewBox="0 0 26 28" version="1.1" xmlns="http://www.w3.org/2000/svg">
<g id="#212121bf">
<path fill="#212121" opacity="0.75" d=" M 8.44 0.76 L 9.40 0.79 C 10.24 2.35 11.57 3.50 12.95 4.57 C 14.28 3.51 15.53 2.33 16.33 0.81 L 17.13 0.69 C 17.10 1.43 17.04 2.90 17.01 3.63 C 17.58 4.04 18.73 4.85 19.30 5.26 C 18.39 7.21 17.29 9.07 16.35 11.00 C 21.47 13.80 20.44 20.82 25.13 24.10 C 23.26 25.38 21.22 26.46 18.99 26.95 C 17.42 26.13 15.91 25.22 14.40 24.33 C 16.69 23.89 18.97 23.43 21.25 22.98 C 21.06 22.32 20.66 21.02 20.46 20.37 C 20.16 19.30 19.77 18.26 19.32 17.25 C 18.71 14.80 16.90 13.13 14.64 12.15 C 15.41 9.75 16.34 7.40 17.29 5.07 C 16.44 5.04 14.75 4.99 13.91 4.97 C 13.73 6.14 13.36 7.24 12.80 8.28 C 12.59 5.67 11.00 4.66 8.59 4.77 C 9.61 7.42 10.67 10.06 11.35 12.82 C 9.16 10.76 7.96 7.94 6.65 5.29 C 7.15 4.88 8.16 4.06 8.66 3.65 C 8.60 2.93 8.49 1.48 8.44 0.76 Z" />
</g>
<g id="#212121be">
<path fill="#212121" opacity="0.75" d=" M 0.74 23.67 C 5.66 20.91 4.54 14.08 9.09 10.91 C 9.14 11.71 9.24 13.29 9.29 14.09 L 8.19 13.55 C 7.14 16.61 5.94 19.60 4.58 22.54 C 4.12 23.53 3.63 24.51 3.20 25.51 C 2.23 25.08 1.41 24.47 0.74 23.67 Z" />
</g>
<g id="#282828e6">
<path fill="#282828" opacity="0.90" d=" M 8.36 15.35 C 8.68 15.67 8.68 15.67 8.36 15.35 Z" />
</g>
<g id="#222222c3">
<path fill="#222222" opacity="0.76" d=" M 18.56 21.12 C 17.04 20.49 15.89 15.55 18.26 16.39 C 18.66 17.93 18.77 19.53 18.56 21.12 Z" />
</g>
<g id="#1010105e">
<path fill="#101010" opacity="0.37" d=" M 18.26 16.39 L 19.32 17.25 C 19.77 18.26 20.16 19.30 20.46 20.37 C 19.94 20.97 18.89 22.15 18.37 22.74 L 18.56 21.12 C 18.77 19.53 18.66 17.93 18.26 16.39 Z" />
</g>
<g id="#222222c5">
<path fill="#222222" opacity="0.77" d=" M 9.34 18.21 C 11.10 18.62 9.88 22.51 8.18 21.84 C 7.49 20.65 8.15 18.82 9.34 18.21 Z" />
</g>
<g id="#15151577">
<path fill="#151515" opacity="0.47" d=" M 3.20 25.51 C 3.63 24.51 4.12 23.53 4.58 22.54 C 7.72 23.73 11.06 24.12 14.40 24.33 C 15.91 25.22 17.42 26.13 18.99 26.95 C 14.12 27.81 9.08 27.78 4.35 26.23 C 6.83 26.56 5.03 23.31 3.92 25.49 L 2.69 26.76 L 3.20 25.51 Z" />
</g>
<g id="#262626d7">
<path fill="#262626" opacity="0.84" d=" M 3.92 25.49 C 5.03 23.31 6.83 26.56 4.35 26.23 L 3.92 25.49 Z" />
</g>
</svg>
