<?xml version="1.0" encoding="UTF-8" ?>
<!DOCTYPE svg PUBLIC "-//W3C//DTD SVG 1.1//EN" "http://www.w3.org/Graphics/SVG/1.1/DTD/svg11.dtd">
<svg width="30pt" height="27pt" viewBox="0 0 30 27" version="1.1" xmlns="http://www.w3.org/2000/svg">
<g id="#282828cc">
<path fill="#282828" opacity="0.80" d=" M 16.15 2.16 C 17.46 2.38 17.68 3.12 16.80 4.36 C 15.49 4.14 15.27 3.41 16.15 2.16 Z" />
</g>
<g id="#1c1c1c8a">
<path fill="#1c1c1c" opacity="0.54" d=" M 9.16 3.27 C 10.49 2.40 12.28 4.44 11.57 5.74 C 10.27 6.85 8.21 4.55 9.16 3.27 Z" />
</g>
<g id="#1c1c1c8b">
<path fill="#1c1c1c" opacity="0.55" d=" M 20.18 5.89 C 21.37 4.89 22.58 3.92 23.81 2.98 C 23.27 4.59 22.08 5.76 20.81 6.80 C 20.57 7.03 20.11 7.48 19.87 7.70 C 19.54 8.27 18.87 9.42 18.53 9.99 C 17.02 10.00 15.52 10.00 14.01 10.01 C 13.75 9.42 13.22 8.23 12.95 7.64 C 12.78 7.26 12.44 6.50 12.27 6.12 C 14.90 5.94 17.54 5.97 20.18 5.89 Z" />
</g>
<g id="#272727c5">
<path fill="#272727" opacity="0.77" d=" M 9.55 9.96 C 10.45 8.67 11.33 7.38 12.27 6.12 C 12.44 6.50 12.78 7.26 12.95 7.64 C 12.25 8.73 11.56 9.83 10.87 10.93 C 10.33 11.14 9.23 11.58 8.68 11.80 C 8.68 16.38 8.65 20.97 8.90 25.54 C 7.57 25.78 6.22 25.80 4.89 25.65 C 5.04 20.73 5.03 15.81 4.87 10.90 C 3.93 11.33 2.99 11.76 2.05 12.20 C 2.13 16.30 2.01 20.40 2.20 24.50 L 3.16 24.95 C 2.90 25.45 2.36 26.47 2.10 26.98 C -0.28 22.11 0.51 16.40 1.03 11.21 C 3.14 8.57 6.71 9.94 9.55 9.96 M 6.25 10.66 C 5.87 15.25 5.98 19.86 6.01 24.46 C 6.20 24.55 6.58 24.72 6.77 24.81 C 7.36 20.22 7.93 15.09 6.25 10.66 Z" />
</g>
<g id="#2b2b2bd7">
<path fill="#2b2b2b" opacity="0.84" d=" M 19.87 7.70 C 20.11 7.48 20.57 7.03 20.81 6.80 C 21.35 7.72 21.90 8.64 22.44 9.56 C 24.68 9.81 28.20 9.89 28.10 13.00 C 28.10 17.53 29.37 22.67 26.76 26.71 C 26.47 26.27 25.88 25.39 25.59 24.95 L 26.75 24.64 C 26.95 20.24 27.07 15.78 26.16 11.43 C 24.57 11.30 22.98 11.16 21.39 11.02 C 20.87 9.92 20.36 8.81 19.87 7.70 Z" />
</g>
<g id="#252525bb">
<path fill="#252525" opacity="0.73" d=" M 3.10 8.74 C 3.13 7.37 6.69 7.43 6.70 8.79 C 5.49 9.46 4.29 9.44 3.10 8.74 Z" />
<path fill="#252525" opacity="0.73" d=" M 14.29 12.31 C 18.70 10.40 24.03 15.46 22.28 19.97 C 20.92 25.05 13.04 25.74 10.81 20.99 C 8.66 17.79 11.02 13.58 14.29 12.31 M 11.57 17.17 C 13.02 16.00 14.46 14.73 16.41 14.52 C 15.07 16.16 13.66 18.72 11.11 17.41 C 11.63 20.62 14.94 24.42 18.39 22.28 C 21.96 20.75 21.49 16.17 18.90 13.94 C 15.94 13.00 12.48 13.90 11.57 17.17 Z" />
</g>
<g id="#0f0f0f4d">
<path fill="#0f0f0f" opacity="0.30" d=" M 6.25 10.66 C 7.93 15.09 7.36 20.22 6.77 24.81 C 6.58 24.72 6.20 24.55 6.01 24.46 C 5.98 19.86 5.87 15.25 6.25 10.66 Z" />
</g>
<g id="#292929cf">
<path fill="#292929" opacity="0.81" d=" M 23.46 12.36 C 24.73 11.07 26.99 13.10 25.54 14.37 C 24.36 15.55 22.17 13.55 23.46 12.36 Z" />
</g>
<g id="#1f1f1f9e">
<path fill="#1f1f1f" opacity="0.62" d=" M 3.16 24.95 C 3.59 25.12 4.46 25.47 4.89 25.65 C 6.22 25.80 7.57 25.78 8.90 25.54 C 14.41 24.47 20.03 25.33 25.59 24.95 C 25.88 25.39 26.47 26.27 26.76 26.71 L 26.97 27.00 L 2.09 27.00 L 2.10 26.98 C 2.36 26.47 2.90 25.45 3.16 24.95 Z" />
</g>
</svg>
