<?xml version="1.0" encoding="UTF-8" ?>
<!DOCTYPE svg PUBLIC "-//W3C//DTD SVG 1.1//EN" "http://www.w3.org/Graphics/SVG/1.1/DTD/svg11.dtd">
<svg width="30pt" height="23pt" viewBox="0 0 30 23" version="1.1" xmlns="http://www.w3.org/2000/svg">
<g id="#14141463">
<path fill="#141414" opacity="0.39" d=" M 4.76 1.75 C 11.51 0.60 18.48 0.63 25.24 1.72 C 18.42 1.93 11.57 2.21 4.76 1.75 Z" />
<path fill="#141414" opacity="0.39" d=" M 0.77 2.75 C 2.18 2.85 3.60 2.94 5.01 3.03 C 5.02 3.52 5.03 4.50 5.04 5.00 C 2.56 5.69 0.06 6.33 0.77 2.75 Z" />
</g>
<g id="#2d2d2de3">
<path fill="#2d2d2d" opacity="0.89" d=" M 0.77 2.75 C 2.06 2.28 3.40 1.96 4.76 1.75 C 11.57 2.21 18.42 1.93 25.24 1.72 C 26.65 1.94 28.04 2.28 29.38 2.79 C 29.14 3.04 28.65 3.53 28.40 3.78 C 26.99 3.27 25.50 2.97 23.99 2.98 C 17.66 2.89 11.34 3.01 5.01 3.03 C 3.60 2.94 2.18 2.85 0.77 2.75 Z" />
</g>
<g id="#282828c8">
<path fill="#282828" opacity="0.78" d=" M 0.00 3.00 L 0.77 2.75 C 0.06 6.33 2.56 5.69 5.04 5.00 C 3.21 6.09 2.89 7.10 5.17 7.80 C 3.52 8.17 0.07 7.06 1.02 9.91 C 2.40 10.04 3.78 10.14 5.16 10.20 C 2.55 10.91 3.65 12.05 5.32 13.25 C 3.11 13.44 -0.00 12.44 0.92 15.87 C 0.95 16.69 0.99 18.31 1.02 19.12 C 0.68 20.48 2.45 20.35 3.28 20.47 C 10.41 20.93 17.58 21.30 24.72 20.81 L 25.01 21.91 C 16.74 21.39 8.08 23.39 0.00 21.19 L 0.00 3.00 Z" />
</g>
<g id="#10101052">
<path fill="#101010" opacity="0.32" d=" M 23.99 2.98 C 25.50 2.97 26.99 3.27 28.40 3.78 C 27.45 5.32 25.61 4.94 24.10 4.89 C 24.07 4.41 24.02 3.45 23.99 2.98 Z" />
</g>
<g id="#212121a7">
<path fill="#212121" opacity="0.65" d=" M 29.38 2.79 L 30.00 3.00 L 30.00 21.21 C 28.39 21.74 26.70 21.96 25.01 21.91 L 24.72 20.81 C 25.94 20.33 28.86 21.37 27.83 19.13 C 25.95 18.89 24.01 18.44 22.14 18.99 C 17.10 19.04 12.07 19.06 7.04 18.97 L 6.68 18.22 C 6.95 17.96 7.48 17.44 7.75 17.17 C 12.43 18.03 17.23 18.24 21.97 17.93 C 22.11 13.97 22.11 10.00 21.95 6.04 C 17.30 5.95 12.65 5.97 8.00 6.06 C 7.66 5.73 6.97 5.05 6.63 4.71 C 12.16 4.93 17.69 5.10 23.22 4.85 L 24.10 4.89 C 25.61 4.94 27.45 5.32 28.40 3.78 C 28.65 3.53 29.14 3.04 29.38 2.79 M 24.01 8.02 C 23.00 10.95 26.27 9.87 27.99 9.98 C 29.00 7.05 25.73 8.13 24.01 8.02 Z" />
</g>
<g id="#1b1b1b86">
<path fill="#1b1b1b" opacity="0.53" d=" M 6.63 4.71 C 12.09 3.55 17.76 3.86 23.22 4.85 C 17.69 5.10 12.16 4.93 6.63 4.71 Z" />
</g>
<g id="#1c1c1c91">
<path fill="#1c1c1c" opacity="0.57" d=" M 5.04 5.00 C 5.44 4.93 6.23 4.78 6.63 4.71 C 6.97 5.05 7.66 5.73 8.00 6.06 C 8.01 9.77 8.09 13.48 7.75 17.17 C 7.48 17.44 6.95 17.96 6.68 18.22 C 4.86 18.86 2.93 18.99 1.02 19.12 C 0.99 18.31 0.95 16.69 0.92 15.87 C 2.88 14.61 8.00 16.83 5.32 13.25 C 3.65 12.05 2.55 10.91 5.16 10.20 C 6.30 9.40 6.30 8.60 5.17 7.80 C 2.89 7.10 3.21 6.09 5.04 5.00 Z" />
</g>
<g id="#07070723">
<path fill="#070707" opacity="0.14" d=" M 1.02 9.91 C 0.07 7.06 3.52 8.17 5.17 7.80 C 6.30 8.60 6.30 9.40 5.16 10.20 C 3.78 10.14 2.40 10.04 1.02 9.91 Z" />
</g>
<g id="#292929ce">
<path fill="#292929" opacity="0.81" d=" M 12.05 7.96 C 13.59 7.84 15.15 8.16 16.18 9.41 C 14.03 9.74 9.90 8.15 13.40 13.52 C 13.82 13.87 14.65 14.58 15.07 14.93 C 10.30 18.75 12.14 11.14 12.05 7.96 Z" />
</g>
<g id="#04040419">
<path fill="#040404" opacity="0.10" d=" M 24.01 8.02 C 25.73 8.13 29.00 7.05 27.99 9.98 C 26.27 9.87 23.00 10.95 24.01 8.02 Z" />
</g>
<g id="#14141466">
<path fill="#141414" opacity="0.40" d=" M 13.40 13.52 C 9.90 8.15 14.03 9.74 16.18 9.41 C 17.65 9.57 19.38 11.18 18.93 12.84 C 17.77 13.74 16.44 14.41 15.07 14.93 C 14.65 14.58 13.82 13.87 13.40 13.52 Z" />
</g>
<g id="#0808082b">
<path fill="#080808" opacity="0.17" d=" M 0.92 15.87 C -0.00 12.44 3.11 13.44 5.32 13.25 C 8.00 16.83 2.88 14.61 0.92 15.87 Z" />
</g>
<g id="#03030311">
<path fill="#030303" opacity="0.07" d=" M 1.02 19.12 C 2.93 18.99 4.86 18.86 6.68 18.22 L 7.04 18.97 C 10.84 21.38 17.56 19.72 22.14 18.99 C 24.01 18.44 25.95 18.89 27.83 19.13 C 28.86 21.37 25.94 20.33 24.72 20.81 C 17.58 21.30 10.41 20.93 3.28 20.47 C 2.45 20.35 0.68 20.48 1.02 19.12 Z" />
</g>
<g id="#1212125b">
<path fill="#121212" opacity="0.36" d=" M 7.04 18.97 C 12.07 19.06 17.10 19.04 22.14 18.99 C 17.56 19.72 10.84 21.38 7.04 18.97 Z" />
</g>
<g id="#0b0b0b3b">
<path fill="#0b0b0b" opacity="0.23" d=" M 0.00 21.19 C 8.08 23.39 16.74 21.39 25.01 21.91 C 26.70 21.96 28.39 21.74 30.00 21.21 L 30.00 23.00 L 0.00 23.00 L 0.00 21.19 Z" />
</g>
</svg>
